<?xml version="1.0" standalone="yes"?>

<svg version="1.1" viewBox="0.0 0.0 720.0 540.0" fill="none" stroke="none" stroke-linecap="square" stroke-miterlimit="10" xmlns="http://www.w3.org/2000/svg" xmlns:xlink="http://www.w3.org/1999/xlink"><clipPath id="p.0"><path d="m0 0l720.0 0l0 540.0l-720.0 0l0 -540.0z" clip-rule="nonzero"></path></clipPath><g clip-path="url(#p.0)"><path fill="#000000" fill-opacity="0.0" d="m0 0l720.0 0l0 540.0l-720.0 0z" fill-rule="nonzero"></path><path fill="#000000" fill-opacity="0.0" d="m216.0 90.49606l200.0 0l0 130.01575l-200.0 0z" fill-rule="nonzero"></path><path fill="#c61d18" d="m305.8125 192.62607l-3.1875 29.75l-75.25 0l0 -2.3125l2.8125 0q3.6875 0 5.9375 -1.3125q1.625 -0.875 2.5 -3.0q0.6875 -1.5 0.6875 -7.875l0 -55.75q0 -6.5 -0.6875 -8.125q-0.6875 -1.625 -2.78125 -2.84375q-2.09375 -1.21875 -5.65625 -1.21875l-2.8125 0l0 -2.3125l45.1875 0l0 2.3125l-3.6875 0q-3.6875 0 -5.9375 1.3125q-1.625 0.875 -2.5625 3.0q-0.6875 1.5 -0.6875 7.875l0 54.0q0 6.5 0.75 8.28125q0.75 1.78125 2.9375 2.65625q1.5625 0.5625 7.5625 0.5625l7.0625 0q6.75 0 11.25 -2.375q4.5 -2.375 7.78125 -7.5q3.28125 -5.125 6.21875 -15.125l2.5625 0z" fill-rule="nonzero"></path><path fill="#000000" fill-opacity="0.0" d="m295.50394 177.49606l249.0079 0l0 137.00787l-249.0079 0z" fill-rule="nonzero"></path><path fill="#c61d18" d="m385.25394 224.62607l0 22.9375l-2.25 0q-2.0 -7.9375 -4.4375 -11.40625q-2.4375 -3.46875 -6.6875 -5.53125q-2.375 -1.125 -8.3125 -1.125l-6.3125 0l0 65.375q0 6.5 0.71875 8.125q0.71875 1.625 2.8125 2.84375q2.09375 1.21875 5.71875 1.21875l2.8125 0l0 2.3125l-44.375 0l0 -2.3125l2.8125 0q3.6875 0 5.9375 -1.3125q1.625 -0.875 2.5625 -3.0q0.6875 -1.5 0.6875 -7.875l0 -65.375l-6.125 0q-8.5625 0 -12.4375 3.625q-5.4375 5.0625 -6.875 14.4375l-2.375 0l0 -22.9375l76.125 0z" fill-rule="nonzero"></path><path fill="#000000" fill-opacity="0.0" d="m215.99982 177.52652l120.91339 -0.0315094l0 165.00786l-120.91339 0.03152466z" fill-rule="nonzero"></path><path fill="#c61d18" d="m270.62482 224.64229l26.5 56.493088l11.9375 -41.003098q0.9375 -3.3752441 0.9375 -6.000244q0 -3.125 -1.96875 -4.999481q-1.96875 -1.8744965 -6.78125 -2.1857452l0.6875 -2.3126678l26.875 -0.007003784l-0.625 2.3126678q-5.125 0.3138275 -8.46875 2.8771973q-3.34375 2.5633698 -5.65625 10.31398l-20.6875 70.19287l-2.375 6.4086914E-4l-34.0 -72.24115l-16.4375 56.316772q-0.8125 2.9377136 -0.8125 5.2502136q0 3.375 2.21875 5.40567q2.21875 2.0306702 7.09375 2.029419l-0.5625 2.3126526l-27.625 0.007171631l0.5625 -2.312622q3.5625 -9.460449E-4 5.0625 -0.6263428q2.625 -1.0006714 5.125 -3.8450623q2.5 -2.8444214 4.0625 -8.219818l17.9375 -61.567184q-3.3125 -3.6866302 -5.5625 -4.7485504q-2.25 -1.0619049 -6.75 -1.12323l0.6875 -2.312683l28.625 -0.007461548z" fill-rule="nonzero"></path><path fill="#000000" fill-opacity="0.0" d="m290.50394 89.98425l138.99213 0.03149414l0 134.01575l-138.99213 -0.03149414z" fill-rule="nonzero"></path><path fill="#c61d18" d="m352.75394 197.75337l-29.9375 -0.006790161l-3.5625 8.249191q-1.75 4.1246033 -1.75 6.8121033q0 3.5625 2.875 5.250656q1.6875 1.0003815 8.3125 1.5018768l0 2.3125l-28.1875 -0.006378174l0 -2.3125q4.5625 -0.68647766 7.5 -3.7795563q2.9375 -3.0930786 7.25 -12.779602l30.3125 -67.61813l1.1875 2.593994E-4l30.5625 69.50693q4.375 9.875992 7.1875 12.439133q2.125 1.9379883 6.0 2.251358l0 2.3125l-41.0 -0.009292603l0 -2.3125l1.6875 3.8146973E-4q4.9375 0.0011291504 6.9375 -1.3734283q1.375 -0.99967957 1.375 -2.8746796q0 -1.125 -0.375 -2.3125916q-0.125 -0.5625305 -1.875 -4.6879272l-4.5 -10.563507zm-2.125 -4.6254883l-12.625 -29.190369l-13.0 29.184555l25.625 0.0058135986z" fill-rule="nonzero"></path></g></svg>

